# xmcd
#
# Track frame offsets:
#	150
#	17826
#	31647
#	49455
#	68614
#	90681
#	110712
#	127642
#	141112
#	158806
#	171465
#	184543
#
# Disc length: 3028 seconds
#
# Revision: 0
# Processed by: cddbd v1.5.2PL0 Copyright (c) Steve Scherf et al.
# Submitted via: EasyCDDAExtractor 12.0.0.1
#
DISCID=990bd20c
DTITLE=Yves Jamait - Je Passais Par Hasard
DYEAR=2008
DGENRE=Variétés FR
TTITLE0=Des Mains De Femme
TTITLE1=Quitte Moi
TTITLE2=Je Passais Par Hasard
TTITLE3=Etc
TTITLE4=En Deux Mots
TTITLE5=Celibataire
TTITLE6=Les Deux Amants
TTITLE7=Athees Souhaits
TTITLE8=Nous Nous Reverrons
TTITLE9=Boa Bonheur
TTITLE10=Je Suis Vivant
TTITLE11=Les Mots Chocolat
EXTD=
EXTT0=
EXTT1=
EXTT2=
EXTT3=
EXTT4=
EXTT5=
EXTT6=
EXTT7=
EXTT8=
EXTT9=
EXTT10=
EXTT11=
PLAYORDER=
